<svg width="134" height="15" viewBox="0 0 134 15" fill="none" xmlns="http://www.w3.org/2000/svg">
<path d="M0.48 15V0.819999H3.24V7.56L9.2 0.799999H12.24L6.8 7.1L12.58 15H9.46L5.04 8.88L3.24 10.76V15H0.48ZM25.7989 0.799999V15H23.0589V8.94H16.6189V15H13.8589V0.799999H16.6189V6.54H23.0589V0.799999H25.7989ZM32.6213 0.799999H35.4213L40.6413 15H37.8013L36.4813 11.46H31.5213L30.2212 15H27.3813L32.6213 0.799999ZM35.9813 9.52L34.0213 3.66L31.9813 9.52H35.9813Z" fill="#B39952"/>
<path d="M42.1988 15V0.799999H47.3588C48.9054 0.799999 50.1988 1.12 51.2388 1.76C52.2788 2.38667 53.0588 3.24 53.5788 4.32C54.0988 5.38667 54.3588 6.57333 54.3588 7.88C54.3588 9.32 54.0721 10.5733 53.4988 11.64C52.9254 12.7067 52.1121 13.5333 51.0588 14.12C50.0188 14.7067 48.7854 15 47.3588 15H42.1988ZM51.5788 7.88C51.5788 6.96 51.4121 6.15333 51.0788 5.46C50.7454 4.75333 50.2654 4.20667 49.6388 3.82C49.0121 3.42 48.2521 3.22 47.3588 3.22H44.9588V12.58H47.3588C48.2654 12.58 49.0321 12.38 49.6588 11.98C50.2854 11.5667 50.7588 11.0067 51.0788 10.3C51.4121 9.58 51.5788 8.77333 51.5788 7.88ZM59.8283 0.799999H62.6283L67.8483 15H65.0083L63.6883 11.46H58.7283L57.4283 15H54.5883L59.8283 0.799999ZM63.1883 9.52L61.2283 3.66L59.1883 9.52H63.1883ZM80.9858 15V5.68L77.3458 12.62H75.8058L72.1658 5.68V15H69.4058V0.799999H72.3658L76.5658 8.88L80.8058 0.799999H83.7458V15H80.9858ZM90.5705 0.799999H93.3705L98.5905 15H95.7505L94.4305 11.46H89.4705L88.1705 15H85.3305L90.5705 0.799999ZM93.9305 9.52L91.9705 3.66L89.9305 9.52H93.9305ZM109.44 3.22H104.9V15H102.16V3.22H97.6198V0.799999H109.44V3.22ZM113.735 0.799999H116.535L121.755 15H118.915L117.595 11.46H112.635L111.335 15H108.495L113.735 0.799999ZM117.095 9.52L115.135 3.66L113.095 9.52H117.095ZM123.408 0.799999L126.908 7.48L130.468 0.799999H133.448L128.288 10.04V15H125.548V10L120.408 0.799999H123.408Z" fill="#F2F2F2"/>
</svg>
