<svg width="74" height="74" viewBox="0 0 74 74" fill="none" xmlns="http://www.w3.org/2000/svg">
<g clip-path="url(#clip0_54_180)">
<path d="M37 42.1033C41.9325 42.1033 45.931 38.1047 45.931 33.1722C45.931 28.2398 41.9325 24.2412 37 24.2412C32.0675 24.2412 28.069 28.2398 28.069 33.1722C28.069 38.1047 32.0675 42.1033 37 42.1033Z" fill="#B39952"/>
<path d="M34.4483 1.49777V9.20142C34.4456 9.84631 33.9622 10.3878 33.3217 10.4633C28.7825 11.0814 24.4797 12.8608 20.8297 15.6292C20.3213 16.0263 19.597 15.9843 19.1379 15.531L13.6951 10.0792C13.4421 9.82595 13.3071 9.47802 13.3231 9.12036C13.3391 8.76271 13.5046 8.42823 13.7793 8.1986C19.2951 3.72566 25.9928 0.953736 33.0563 0.220632C33.4145 0.187893 33.7699 0.307895 34.035 0.551085C34.3001 0.794276 34.4501 1.13806 34.4483 1.49777Z" fill="#B39952" fill-opacity="0.6"/>
<path d="M60.3049 10.0792L54.8621 15.5309C54.4035 15.982 53.6819 16.024 53.1741 15.6292C49.5231 12.8597 45.219 11.0798 40.6783 10.4619C40.0383 10.3865 39.555 9.84576 39.5517 9.20137V1.49771C39.5502 1.13822 39.7005 0.794785 39.9655 0.551877C40.2305 0.308969 40.5857 0.189135 40.9437 0.221852C48.0071 0.954588 54.7048 3.72606 60.2207 8.19854C60.4954 8.42818 60.6609 8.76265 60.6769 9.12031C60.6929 9.47797 60.5579 9.8259 60.3049 10.0792Z" fill="#B39952" fill-opacity="0.8"/>
<path d="M72.5021 34.4482H64.7985C64.1536 34.4456 63.6121 33.9621 63.5367 33.3217C62.9181 28.7791 61.1389 24.4726 58.3707 20.8182C57.9759 20.3104 58.0179 19.5888 58.4689 19.1302L63.9041 13.6951C64.1568 13.4397 64.5055 13.3027 64.8645 13.3178C65.2234 13.3328 65.5594 13.4985 65.7898 13.7742C70.2707 19.2887 73.0471 25.9898 73.7793 33.0576C73.8116 33.4156 73.6915 33.7706 73.4483 34.0354C73.2052 34.3002 72.8616 34.4501 72.5021 34.4482Z" fill="#B39952"/>
<path d="M72.4996 39.5515C72.8596 39.55 73.2034 39.7005 73.4464 39.9661C73.6894 40.2317 73.8089 40.5876 73.7754 40.946C71.7673 59.7451 55.9048 74.0034 36.9987 74.0034C18.0927 74.0034 2.2302 59.7451 0.222 40.946C0.188519 40.5876 0.308008 40.2317 0.551003 39.9661C0.793998 39.7005 1.13788 39.55 1.49786 39.5515H9.20407C9.84711 39.5553 10.3868 40.0371 10.4633 40.6756C12.3045 53.9202 23.6293 63.7797 37.0013 63.7797C50.3733 63.7797 61.6981 53.9202 63.5392 40.6756C63.6156 40.038 64.1539 39.5566 64.7959 39.5515H72.4996Z" fill="#B39952"/>
<path d="M15.6293 20.817C12.8611 24.4714 11.0819 28.7778 10.4633 33.3204C10.3885 33.9614 9.84683 34.4455 9.20152 34.4483H1.49786C1.13837 34.4498 0.794934 34.2995 0.552026 34.0345C0.309118 33.7695 0.189284 33.4143 0.222001 33.0563C0.955014 25.9909 3.73087 19.2923 8.21017 13.7793C8.44061 13.5037 8.77659 13.338 9.13555 13.3229C9.49451 13.3078 9.84318 13.4448 10.0959 13.7002L15.5311 19.1354C15.9785 19.593 16.0204 20.3103 15.6293 20.817Z" fill="#B39952" fill-opacity="0.4"/>
<path d="M37 58.6895C26.3902 58.6886 17.3382 51.0125 15.6038 40.5454C15.5319 40.1279 15.6706 39.7017 15.9743 39.4064C16.2781 39.111 16.708 38.9844 17.1233 39.068C19.9309 39.6393 22.6744 40.4894 25.3131 41.6057C30.7205 43.7774 34.963 48.1264 37 53.586C39.0373 48.1269 43.2798 43.7784 48.6869 41.6069C51.3256 40.4907 54.0691 39.6406 56.8766 39.0692C57.292 38.9857 57.7219 39.1123 58.0257 39.4077C58.3294 39.703 58.4681 40.1291 58.3962 40.5467C56.6612 51.0133 47.6094 58.6887 37 58.6895Z" fill="#B39952"/>
</g>
<defs>
<clipPath id="clip0_54_180">
<rect width="74" height="74" fill="white"/>
</clipPath>
</defs>
</svg>
